<?xml version="1.0" standalone="no"?>
<!DOCTYPE svg PUBLIC "-//W3C//DTD SVG 20010904//EN"
 "http://www.w3.org/TR/2001/REC-SVG-20010904/DTD/svg10.dtd">
<svg version="1.0" xmlns="http://www.w3.org/2000/svg"
 width="210.000000pt" height="210.000000pt" viewBox="0 0 210.000000 210.000000"
 preserveAspectRatio="xMidYMid meet">
<metadata>
Created by potrace 1.14, written by Peter Selinger 2001-2017
</metadata>
<g transform="translate(0.000000,210.000000) scale(0.100000,-0.100000)"
fill="#000000" stroke="none">
<path d="M756 2063 c-4 -5 -12 -9 -17 -9 -5 -1 -12 -3 -16 -4 -5 -1 -12 -3
-18 -5 -112 -27 -297 -145 -418 -269 -99 -99 -214 -282 -242 -382 -5 -16 -9
-33 -11 -39 -29 -98 -35 -152 -33 -315 1 -131 6 -193 19 -245 51 -198 133
-340 284 -490 128 -127 232 -193 395 -251 l95 -34 261 0 c248 0 265 1 331 24
38 13 89 33 113 45 25 11 51 21 58 21 7 0 13 4 13 9 0 5 14 14 31 21 17 7 36
18 42 24 7 7 32 26 57 44 42 30 168 155 215 212 53 66 125 206 161 315 22 66
23 86 23 319 0 137 -3 254 -7 260 -4 6 -7 13 -8 16 -12 73 -84 225 -151 319
-48 66 -196 221 -212 221 -5 0 -11 4 -13 8 -9 25 -195 132 -260 151 -4 2 -31
11 -60 22 -47 17 -81 19 -339 19 -157 0 -289 -3 -293 -7z m461 -407 c70 -22
158 -64 214 -103 146 -101 257 -306 263 -488 4 -88 -49 -278 -82 -299 -5 -3
-52 35 -103 85 l-93 90 -1 107 c-1 129 -18 175 -94 255 -78 82 -154 113 -276
110 -115 -3 -171 -26 -252 -105 -72 -71 -95 -129 -98 -248 -2 -52 0 -99 3
-105 4 -5 7 -14 8 -20 15 -85 145 -210 238 -231 11 -3 28 -7 36 -9 8 -2 40 -4
70 -4 l55 -1 107 -104 107 -104 -32 -15 c-92 -42 -215 -59 -307 -42 -19 4 -44
8 -55 10 -58 9 -203 74 -224 99 -8 9 -19 16 -26 16 -23 0 -143 141 -178 209
-71 136 -95 260 -74 376 40 221 187 410 378 485 29 12 58 24 63 28 6 3 16 7
21 8 50 9 68 14 72 17 10 11 213 -3 260 -17z"/>
</g>
</svg>
